<?xml version="1.0" standalone="no"?>
<!DOCTYPE svg PUBLIC "-//W3C//DTD SVG 20010904//EN"
 "http://www.w3.org/TR/2001/REC-SVG-20010904/DTD/svg10.dtd">
<svg version="1.0" xmlns="http://www.w3.org/2000/svg"
 width="700.000000pt" height="700.000000pt" viewBox="0 0 700.000000 700.000000"
 preserveAspectRatio="xMidYMid meet">
<metadata>
Created by potrace 1.11, written by Peter Selinger 2001-2013
</metadata>
<g transform="translate(0.000000,700.000000) scale(0.100000,-0.100000)"
fill="#000000" stroke="none">
<path d="M300 6577 c-2 -1669 1 -6131 4 -6135 4 -4 3663 -6 3749 -3 16 1 17
24 17 336 l0 335 -1473 0 -1473 0 1 2763 c0 1519 -1 2768 -3 2775 -3 10 -92
12 -413 12 l-409 -1 0 -82z"/>
<path d="M6075 1315 c-206 -47 -330 -205 -341 -433 -10 -192 75 -360 218 -433
83 -43 163 -58 288 -54 162 5 250 36 334 119 67 66 115 153 131 233 11 56 5
190 -10 247 -46 174 -183 298 -360 326 -82 13 -191 11 -260 -5z"/>
</g>
</svg>
